<svg xmlns="http://www.w3.org/2000/svg" viewBox="0 0 1280 640">
  <rect width="1280" height="640" fill="#0a0a0f"/>

  <g stroke="#e8e8ea" fill="none" stroke-width="0.5" transform="translate(640 320)">
    <polygon points="0,-520 450.3,-260 450.3,260 0,520 -450.3,260 -450.3,-260" opacity="0.08"/>
    <polygon points="0,-360 311.8,-180 311.8,180 0,360 -311.8,180 -311.8,-180" opacity="0.14"/>
    <polygon points="0,-240 207.8,-120 207.8,120 0,240 -207.8,120 -207.8,-120" opacity="0.24"/>
    <polygon points="0,-150 129.9,-75 129.9,75 0,150 -129.9,75 -129.9,-75" opacity="0.38"/>
    <polygon points="0,-85 73.6,-42.5 73.6,42.5 0,85 -73.6,42.5 -73.6,-42.5" opacity="0.6"/>
    <polygon points="0,-40 34.6,-20 34.6,20 0,40 -34.6,20 -34.6,-20" opacity="0.9"/>
  </g>

  <circle cx="640" cy="320" r="2.2" fill="#e8e8ea"/>

  <text x="640" y="610" font-family="ui-monospace, SFMono-Regular, Menlo, monospace" font-size="10" fill="#e8e8ea" opacity="0.35" text-anchor="middle" letter-spacing="8">NEED — SINGULARITY</text>
</svg>
