<svg xmlns="http://www.w3.org/2000/svg" viewBox="0 0 512 512">
  <rect width="512" height="512" fill="#0a0a0f"/>

  <g stroke="#e8e8ea" fill="none" stroke-width="0.8" transform="translate(256 256)">
    <polygon points="0,-240 207.85,-120 207.85,120 0,240 -207.85,120 -207.85,-120" opacity="0.14"/>
    <polygon points="0,-175 151.55,-87.5 151.55,87.5 0,175 -151.55,87.5 -151.55,-87.5" opacity="0.25"/>
    <polygon points="0,-105 90.93,-52.5 90.93,52.5 0,105 -90.93,52.5 -90.93,-52.5" opacity="0.45"/>
    <polygon points="0,-60 51.96,-30 51.96,30 0,60 -51.96,30 -51.96,-30" opacity="0.7"/>
    <polygon points="0,-30 25.98,-15 25.98,15 0,30 -25.98,15 -25.98,-15" opacity="1"/>
  </g>

  <circle cx="256" cy="256" r="3" fill="#e8e8ea"/>
</svg>
